<svg fill="#1ba6d2" xmlns="http://www.w3.org/2000/svg" width="120" height="32" viewBox="0 0 120 32"><path fill="#1BA6D2" d="M9.926 18c0 .552-.448 1-1 1-.554 0-1.002-.448-1.002-1s.45-1 1-1c.554 0 1.002.448 1.002 1zm2.925-1c-.552 0-1 .448-1 1s.448 1 1 1 1.002-.448 1.002-1-.448-1-1-1zm3.926 0c-.553 0-1 .448-1 1s.448 1 1 1c.553 0 1.002-.448 1.002-1s-.448-1-1.002-1zm3.927 0c-.553 0-1 .448-1 1s.447 1 1 1 1-.448 1-1-.447-1-1-1zm3.926 0c-.554 0-1.003.448-1.003 1s.45 1 1.002 1 1-.448 1-1-.448-1-1-1zm3.925 0c-.553 0-1 .448-1 1s.447 1 1 1 1-.448 1-1-.447-1-1-1zm3.925 0c-.553 0-1 .448-1 1s.448 1 1 1c.553 0 1.002-.448 1.002-1s-.448-1-1.002-1zm3.927 0c-.553 0-1 .448-1 1s.447 1 1 1 1-.448 1-1-.447-1-1-1zm3.926 0c-.553 0-1.002.448-1.002 1s.45 1 1.003 1c.553 0 1-.448 1-1s-.447-1-1-1zm3.926 0c-.554 0-1.002.448-1.002 1s.448 1 1 1 1.002-.448 1.002-1-.448-1-1-1zm3.925 0c-.553 0-1 .448-1 1s.447 1 1 1c.553 0 1-.448 1-1s-.447-1-1-1zm3.926 0c-.552 0-1 .448-1 1s.448 1 1 1 1.002-.448 1.002-1-.448-1-1-1zm3.927 0c-.553 0-1 .448-1 1s.447 1 1 1c.553 0 1-.448 1-1s-.447-1-1-1zm3.926 0c-.553 0-1 .448-1 1s.448 1 1 1c.553 0 1-.448 1-1s-.447-1-1-1zm3.926 0c-.554 0-1.002.448-1.002 1s.448 1 1 1 1.002-.448 1.002-1-.448-1-1-1zm3.925 0c-.553 0-1 .448-1 1s.448 1 1 1c.553 0 1-.448 1-1s-.447-1-1-1zm3.926 0c-.552 0-1 .448-1 1s.448 1 1 1 1.002-.448 1.002-1-.448-1-1-1zm3.927 0c-.553 0-1 .448-1 1s.448 1 1 1c.553 0 1.002-.448 1.002-1s-.45-1-1.003-1zm3.926 0c-.553 0-1 .448-1 1s.447 1 1 1 1-.448 1-1-.447-1-1-1zm3.927 0c-.553 0-1.002.448-1.002 1s.45 1 1.002 1c.553 0 1-.448 1-1s-.448-1-1-1zm3.925 0c-.553 0-1 .448-1 1s.447 1 1 1 1-.448 1-1-.446-1-1-1zm3.926 0c-.552 0-1 .448-1 1s.45 1 1 1c.554 0 1.003-.448 1.003-1s-.45-1-1.002-1zm3.927 0c-.553 0-1 .448-1 1s.447 1 1 1 1-.448 1-1-.446-1-1-1zm3.927 0c-.553 0-1.002.448-1.002 1s.45 1 1.002 1c.553 0 1-.448 1-1s-.448-1-1-1zm3.925 0c-.554 0-1.002.448-1.002 1s.448 1 1 1 1.002-.448 1.002-1-.447-1-1-1zm3.926 0c-.553 0-1 .448-1 1s.447 1 1 1c.553 0 1-.448 1-1s-.448-1-1-1zm1.63.293l-10-10-1.413 1.414 10 10 1.414-1.414zm-.505.964l-1.48-1.345-9.46 10.416 1.48 1.345 9.46-10.416z"/></svg>