<svg fill="#1ba6d2" xmlns="http://www.w3.org/2000/svg" width="60" height="55" viewBox="0 0 60 55"><path d="M58.9 29.755c0 2.978-1.054 5.868-3.047 8.356-1.81 2.26-4.313 4.097-7.266 5.337-.216 2.39.63 4.78 2.317 6.483.26.262.337.655.195.996s-.476.563-.845.563c-2.153 0-4.2-.69-5.915-1.993-1.46-1.11-2.602-2.63-3.265-4.34-.462.025-.924.04-1.38.04-6.205 0-12.058-2.427-15.655-6.49-.334-.377-.3-.955.078-1.29.38-.335.957-.3 1.292.078 3.256 3.677 8.596 5.872 14.286 5.872.638 0 1.29-.028 1.935-.084.43-.038.83.23.956.646.83 2.736 2.96 4.757 5.594 5.46-1.206-1.99-1.7-4.38-1.337-6.727.05-.322.267-.594.57-.713 5.96-2.323 9.66-6.996 9.66-12.194 0-6.313-5.47-11.754-13.3-13.233-.495-.094-.822-.572-.728-1.068.094-.497.573-.822 1.07-.73 4.11.777 7.845 2.665 10.515 5.314 2.753 2.73 4.27 6.183 4.27 9.715zm-22.775 1.232c-3.616 2.872-8.41 4.454-13.502 4.454-.456 0-.917-.013-1.38-.04-.663 1.71-1.802 3.233-3.264 4.342-1.717 1.303-3.763 1.992-5.917 1.992-.37 0-.702-.222-.844-.563s-.067-.732.193-.995c1.686-1.702 2.533-4.094 2.317-6.483-2.953-1.24-5.457-3.077-7.266-5.336C4.472 25.868 3.418 22.978 3.418 20c0-4.165 2.025-8.067 5.703-10.988C12.738 6.14 17.533 4.56 22.625 4.56c5.09 0 9.886 1.58 13.5 4.452 3.68 2.92 5.705 6.823 5.705 10.988 0 4.165-2.027 8.067-5.705 10.987zm-13.5 2.625C32.204 33.612 40 27.505 40 20S32.205 6.388 22.624 6.388C13.042 6.388 5.248 12.495 5.248 20c0 5.2 3.7 9.872 9.66 12.194.303.12.52.39.57.713.362 2.347-.132 4.736-1.337 6.726 2.634-.703 4.766-2.724 5.595-5.46.125-.414.523-.684.954-.646.644.056 1.295.085 1.934.085z"/></svg>