<svg fill="#1ba6d2" xmlns="http://www.w3.org/2000/svg" width="65.218" height="55.462" viewBox="0 0 65.218 55.462"><path d="M11.614 39.667L6.94 44.342c-.126.125-.29.188-.454.188-.165 0-.33-.063-.455-.188-.25-.25-.25-.66 0-.91l4.675-4.674c.252-.25.66-.25.91 0s.25.658 0 .91zm1.886.975c-.252-.25-.657-.25-.91 0l-4.675 4.676c-.25.25-.25.658 0 .91.126.124.29.187.455.187s.33-.063.454-.188l4.676-4.675c.252-.252.252-.66 0-.91zm1.884 1.884c-.25-.25-.657-.25-.908 0L9.8 47.2c-.25.252-.25.66 0 .91.126.126.29.19.455.19s.33-.064.455-.19l4.674-4.674c.25-.25.25-.658 0-.91zm.974 1.885l-4.674 4.676c-.25.25-.25.658 0 .91.125.124.29.187.454.187.165 0 .33-.063.455-.188l4.675-4.675c.25-.252.25-.658 0-.91s-.658-.25-.91 0zm-2.697-7.056c.165 0 .33-.062.456-.188l17.83-17.83c.25-.25.25-.66 0-.91s-.658-.25-.91 0l-17.83 17.83c-.25.25-.25.66 0 .91.126.126.29.188.455.188zm11.76-9.54L15.09 38.14c-.25.25-.25.658 0 .91.127.125.29.188.456.188.164 0 .328-.063.454-.188l10.33-10.33c.25-.25.25-.657 0-.908s-.66-.252-.91 0zm6.486 1.05L18.86 41.91c-.25.252-.25.66 0 .91.125.126.29.19.454.19s.33-.064.455-.19l13.045-13.046c.25-.25.25-.658 0-.91-.25-.25-.658-.25-.91 0zM63.43 32.13S20.806 53.405 17.24 55.17c-.153.076-.664.292-1.31.292-.896 0-1.74-.35-2.374-.984L.982 41.902c-1.31-1.31-1.31-3.44 0-4.75L37.15.983C37.785.35 38.63 0 39.525 0c.897 0 1.74.35 2.376.984l9.678 9.68.883-.444c.774-.388 1.654-.45 2.475-.177.822.273 1.488.85 1.874 1.624l8.067 16.116c.798 1.597.148 3.547-1.448 4.348zm-8.014-16.714c.027.17.044.344.044.52 0 .897-.35 1.74-.983 2.375l-6.54 6.543 3.513 7.022 11.226-5.618L56.88 14.68l-1.464.736zm-8.44 10.394L30.355 42.433 50.3 32.45l-3.323-6.64zm5.56-14.19l1.94 1.94c.195.195.358.41.497.64l1.33-.667-.645-1.29c-.233-.468-.634-.815-1.13-.98-.494-.165-1.025-.126-1.493.106l-.5.25zm-8.513 11.056l2.134 2.135 7.41-7.41c.392-.39.606-.91.606-1.465s-.215-1.074-.606-1.465l-.67-.67-8.874 8.876zM42.837 3.74l-8.876 8.874 9.153 9.15 8.875-8.874-9.15-9.15zM30.65 9.302l2.402 2.403 8.875-8.875-.937-.937c-.39-.392-.912-.607-1.465-.607s-1.074.215-1.466.607l-7.41 7.41zM2.83 41.93l29.313-29.315-2.402-2.402-27.85 27.85c-.808.808-.808 2.123 0 2.93l.94.937zm39.374-19.254l-9.15-9.152L3.736 42.84l9.15 9.15 29.317-29.314zM17.398 53.57l27.85-27.85-2.135-2.136L13.8 52.9l.67.67c.39.39.91.606 1.464.606.55 0 1.073-.216 1.464-.607zm34.827-17.277l-1.35-2.695-23.4 11.714-6.702 6.703 31.452-15.722zm11.502-7.936l-.477-.95-11.226 5.616 1.35 2.696 9.478-4.74c.964-.482 1.357-1.66.875-2.623z"/></svg>