<svg fill="#1ba6d2" xmlns="http://www.w3.org/2000/svg" width="53" height="48" viewBox="21 17 53 48"><path d="M67.45 22.93C63.23 19.107 57.614 17 51.64 17c-5.97 0-11.585 2.106-15.81 5.93-4.223 3.826-6.55 8.912-6.55 14.32 0 1.042.09 2.09.264 3.11.07.41.493.692.944.628.453-.063.762-.446.692-.855-.12-.7-.195-1.417-.226-2.133h.812c.457 0 .828-.335.828-.75s-.37-.75-.828-.75h-.81c.144-3.286 1.224-6.357 3.008-9h3.154c-.925 2.06-1.556 4.315-1.85 6.665-.05.413.276.783.73.83.455.047.866-.25.917-.66.303-2.435.99-4.754 2-6.835h6.155c-.287 1.472-.498 2.98-.637 4.436-.04.413.3.776.754.812.457.034.857-.27.896-.683.152-1.603.375-3.138.662-4.564h9.794c.542 2.71.852 5.783.893 9h-2.48c-.456 0-.827.336-.827.75 0 .415.37.75.828.75h2.48c-.064 4.855-.732 9.382-1.9 12.818C54.433 54.063 52.978 56 51.642 56c-1.338 0-2.678-.117-3.98-.346-.45-.08-.886.187-.972.593-.088.405.205.8.654.88 1.408.248 2.854.373 4.3.373 5.972 0 11.587-2.105 15.81-5.932C71.675 47.744 74 42.658 74 37.25s-2.326-10.494-6.55-14.32zm4.876 13.57H68.19c-.095-3.194-.79-6.26-2.02-9h3.148c1.784 2.643 2.864 5.714 3.008 9zm-13.238 0c-.042-3.08-.338-6.193-.878-9h6.158c1.284 2.643 2.062 5.714 2.165 9h-7.445zm7.446 1.5c-.104 3.286-.882 6.357-2.165 9h-6.16c.54-2.807.836-5.92.878-9h7.446zm1.657-12h-2.767c-.578-1.058-1.242-2.057-1.99-2.98-.75-.933-1.564-1.763-2.428-2.488 2.833 1.306 5.29 3.186 7.186 5.468zm-30.33 0h-2.77c1.9-2.287 4.362-4.17 7.2-5.476-.544.455-1.07.95-1.57 1.487-1.1 1.18-2.058 2.523-2.86 3.99zm7.53 0h-5.665c.658-1.1 1.415-2.114 2.26-3.02 1.825-1.957 3.986-3.316 6.29-3.992-1.272 1.666-2.224 4.216-2.884 7.012zm1.69 0c.363-1.482.798-2.812 1.29-3.93 1-2.268 2.192-3.57 3.27-3.57 1.337 0 2.792 1.937 3.895 5.182.245.726.47 1.502.67 2.318H47.08zm7.923-7.02c3.47 1.01 6.48 3.55 8.556 7.02h-5.667c-.684-2.92-1.65-5.405-2.89-7.02zm0 36.54c1.238-1.613 2.206-4.1 2.89-7.02h5.666c-2.078 3.47-5.087 6.008-8.557 7.02zm6.003-1.55c.863-.727 1.678-1.557 2.428-2.487.748-.926 1.412-1.924 1.99-2.98h2.768c-1.896 2.278-4.354 4.16-7.186 5.466zM69.318 47H66.17c1.23-2.738 1.926-5.807 2.02-9h4.136c-.144 3.286-1.224 6.357-3.008 9zm-14.365-2.25c0-5.79-5.2-10.5-11.594-10.5s-11.595 4.71-11.595 10.5c0 2.625 1.07 5.03 2.834 6.872l-1.764 1.597c-.33-.144-.693-.22-1.07-.22-.664 0-1.288.234-1.756.66l-8.28 7.5c-.47.424-.73.988-.73 1.59s.26 1.166.727 1.59c.47.426 1.093.66 1.757.66s1.288-.234 1.756-.66l8.28-7.5c.764-.69.923-1.722.485-2.56l1.766-1.6c2.036 1.6 4.69 2.568 7.59 2.568 6.392.002 11.593-4.708 11.593-10.498zM32.35 55.78l-8.28 7.5c-.156.142-.364.22-.585.22-.22 0-.43-.08-.585-.22-.323-.294-.323-.77 0-1.062l8.28-7.5c.157-.143.365-.22.586-.22.222 0 .43.078.585.22.324.294.324.77 0 1.06zm11.01-2.03c-5.48 0-9.94-4.037-9.94-9s4.46-9 9.94-9 9.937 4.037 9.937 9-4.458 9-9.938 9zm8.28-9c0 .415-.37.75-.827.75s-.828-.335-.828-.75c0-3.31-2.97-6-6.625-6-.457 0-.828-.335-.828-.75s.37-.75.828-.75c4.566 0 8.28 3.365 8.28 7.5z"/></svg>